#!OML:ASF F:\VICON\USERDATA\INSTALL\rory3\rory3.ASF
:FULLY-SPECIFIED
:DEGREES
257
root -5.65329 17.6235 6.99439 -8.72509 -22.2638 5.79939
lowerback 14.6681 1.30076 0.786821
upperback 1.28014 1.84852 0.174035
thorax -6.84887 0.873592 -0.634368
lowerneck -23.3066 4.72542 -8.55419
upperneck 31.4809 9.96094 1.33002
head 14.2138 3.38339 3.79951
rclavicle -4.09993e-015 7.95139e-015
rhumerus -31.7974 -10.3704 -78.8828
rradius 39.5639
rwrist 0.20866
rhand -16.2867 10.7955
rfingers 7.12502
rthumb 9.92355 -18.9506
lclavicle -4.09993e-015 7.95139e-015
lhumerus -31.9364 12.3974 77.4372
lradius 34.128
lwrist -0.436419
lhand -23.7931 25.2584
lfingers 7.12502
lthumb 2.67715 55.2213
rfemur -9.23571 -0.652547 16.5268
rtibia 39.325
rfoot -18.7527 -5.13261
rtoes 2.62659
lfemur -10.4346 5.45721 -26.8167
ltibia 34.4936
lfoot -6.57359 -20.8701
ltoes 1.57456
258
root -5.61977 17.6352 7.01461 -8.54201 -21.5731 5.53528
lowerback 14.8024 1.23976 1.14028
upperback 1.23026 1.83768 0.303048
thorax -6.97025 0.858591 -0.6994
lowerneck -23.1636 4.71523 -8.821
upperneck 31.4959 10.0585 1.2802
head 14.175 3.3893 3.83255
rclavicle -1.19271e-015 3.97569e-015
rhumerus -31.8473 -10.1321 -78.627
rradius 39.4832
rwrist -0.0306566
rhand -16.4204 10.7467
rfingers 7.12502
rthumb 9.79458 -19.0056
lclavicle -1.19271e-015 3.97569e-015
lhumerus -32.1617 12.9218 77.6569
lradius 34.2267
lwrist -0.662836
lhand -23.8422 24.9824
lfingers 7.12502
lthumb 2.62975 54.946
rfemur -9.13944 -1.06815 16.5991
rtibia 39.1769
rfoot -18.5467 -5.59394
rtoes 1.76767
lfemur -11.0985 6.23801 -26.6031
ltibia 35.5114
lfoot -6.1391 -21.7384
ltoes -3.62426
259
root -5.58848 17.6426 7.03245 -8.35482 -20.9378 5.09567
lowerback 14.8225 1.18055 1.6991
upperback 1.36597 1.85519 0.390004
thorax -6.82115 0.853942 -0.924817
lowerneck -23.3933 4.74202 -8.83294
upperneck 31.7269 10.1298 1.34895
head 14.3156 3.40982 3.89647
rclavicle 2.36554e-014 -3.97569e-015
rhumerus -31.6026 -10.22 -78.4809
rradius 39.3296
rwrist -0.0578946
rhand -16.4367 10.6761
rfingers 7.12502
rthumb 9.77883 -19.0769
lclavicle 2.36554e-014 -3.97569e-015
lhumerus -32.0094 13.5014 77.8032
lradius 34.2205
lwrist -1.06958
lhand -23.6788 24.7622
lfingers 7.12502
lthumb 2.78758 54.7238
rfemur -8.97579 -1.34718 16.8985
rtibia 38.9662
rfoot -18.1531 -6.06272
rtoes 1.74816
lfemur -11.7498 6.90357 -26.1215
ltibia 36.5765
lfoot -4.60485 -22.5358
ltoes -4.86502
260
root -5.55743 17.6456 7.04917 -8.21289 -20.2955 4.88765
lowerback 14.7645 1.15257 1.9985
upperback 1.55212 1.86389 0.421561
thorax -6.58141 0.854228 -1.05778
lowerneck -23.8826 4.83911 -8.43736
upperneck 32.2036 10.2779 1.17969
head 14.6631 3.45111 3.84016
rclavicle 7.00716e-015 -1.59028e-015
rhumerus -31.2496 -10.2591 -78.3617
rradius 39.1587
rwrist -0.116122
rhand -16.4093 10.6933
rfingers 7.12502
rthumb 9.80532 -19.0585
lclavicle 7.00716e-015 -1.59028e-015
lhumerus -31.7235 13.9838 78.0095
lradius 34.1819
lwrist -1.27146
lhand -23.3641 25.855
lfingers 7.12502
lthumb 3.09152 55.8123
rfemur -8.84058 -1.64033 16.9437
rtibia 38.7769
rfoot -17.8622 -6.39717
rtoes 2.46726
lfemur -12.4616 7.30663 -25.8353
ltibia 37.561
lfoot -3.35893 -23.3804
ltoes -9.41808
261
root -5.52883 17.6461 7.06526 -8.05012 -19.6329 4.72354
lowerback 14.8049 1.13283 2.14834
upperback 1.57576 1.86688 0.47795
thorax -6.57562 0.85268 -1.08398
lowerneck -24.0993 4.9296 -7.81948
upperneck 32.6009 10.4189 0.644072
head 14.9689 3.46917 3.58249
rclavicle -5.01434e-014 -1.11319e-014
rhumerus -31.1099 -10.2115 -78.1608
rradius 38.8845
rwrist -0.141748
rhand -16.3264 10.8542
rfingers 7.12502
rthumb 9.88526 -18.8937
lclavicle -5.01434e-014 -1.11319e-014
lhumerus -31.8444 14.1347 78.2434
lradius 34.4085
lwrist -0.666447
lhand -22.9898 27.2572
lfingers 7.12502
lthumb 3.45297 57.209
rfemur -8.74279 -1.81526 16.9805
rtibia 38.6188
rfoot -17.8022 -6.93169
rtoes 4.31974
lfemur -13.1755 7.48897 -25.5233
ltibia 38.4049
lfoot -1.52985 -24.1808
ltoes -9.25924
262
root -5.50492 17.6413 7.07959 -7.90843 -19.0511 4.44294
lowerback 14.9577 1.16066 2.30832
upperback 1.54703 1.94346 0.596885
thorax -6.68745 0.885354 -1.06813
lowerneck -24.0992 4.95685 -7.58554
upperneck 32.7636 10.4703 0.40607
head 15.0778 3.47188 3.46665
rclavicle -3.27995e-014 -9.54166e-015
rhumerus -31.1054 -10.2364 -77.9179
rradius 38.6614
rwrist -0.131592
rhand -16.3289 10.8408
rfingers 7.12502
rthumb 9.88285 -18.9073
lclavicle -3.27995e-014 -9.54166e-015
lhumerus -32.0832 14.2876 78.4944
lradius 34.7092
lwrist 0.0346965
lhand -22.7792 27.0397
lfingers 7.12502
lthumb 3.65631 56.9881
rfemur -8.61532 -1.87635 17.203
rtibia 38.4966
rfoot -17.964 -7.60514
rtoes 6.39495
lfemur -13.7757 7.59354 -24.9541
ltibia 39.1127
lfoot 2.67602 -24.4805
ltoes 0.214729
263
root -5.47952 17.6414 7.09556 -7.79203 -18.6033 4.06075
lowerback 15.1185 1.2532 2.52689
upperback 1.54951 2.12128 0.797485
thorax -6.76803 0.967119 -1.0192
lowerneck -24.0628 4.93074 -7.66504
upperneck 32.879 10.4638 0.440574
head 15.1166 3.45956 3.49641
rclavicle -3.57812e-015 1.59028e-015
rhumerus -31.1507 -10.1451 -77.5649
rradius 38.5374
rwrist -0.127416
rhand -16.3296 10.3911
rfingers 7.12502
rthumb 9.88217 -19.357
lclavicle -3.57812e-015 1.59028e-015
lhumerus -32.3028 14.3868 78.8603
lradius 34.9744
lwrist 0.286784
lhand -22.7816 25.9414
lfingers 7.12502
lthumb 3.65404 55.8899
rfemur -8.44308 -1.95656 17.5196
rtibia 38.3689
rfoot -17.968 -8.11211
rtoes 7.62705
lfemur -14.276 7.75549 -24.2168
ltibia 39.7333
lfoot 6.15407 -24.4936
ltoes 7.12985
264
root -5.45281 17.6448 7.11506 -7.71224 -18.2637 3.79421
lowerback 15.1661 1.37915 2.63564
upperback 1.62294 2.31628 0.950596
thorax -6.71166 1.06231 -0.958021
lowerneck -24.0651 4.89764 -7.6415
upperneck 32.87 10.4341 0.373025
head 15.1228 3.44149 3.46019
rclavicle -3.16068e-014 3.97569e-015
rhumerus -31.1006 -10.0195 -77.2715
rradius 38.3479
rwrist -0.182351
rhand -16.4091 9.89026
rfingers 7.12502
rthumb 9.80552 -19.8614
lclavicle -3.16068e-014 3.97569e-015
lhumerus -32.4529 14.4418 79.198
lradius 35.2486
lwrist 0.272595
lhand -22.447 25.34
lfingers 7.12502
lthumb 3.97709 55.2826
rfemur -8.26128 -1.93935 17.6959
rtibia 38.2111
rfoot -17.9977 -8.4704
rtoes 8.60606
lfemur -14.728 8.00768 -23.5647
ltibia 40.2608
lfoot 7.58114 -25.1112
ltoes 4.02863
265
root -5.42439 17.6444 7.13555 -7.7422 -17.9304 3.7076
lowerback 15.2942 1.47525 2.61467
upperback 1.69257 2.44727 1.02353
thorax -6.70791 1.12789 -0.898343
lowerneck -24.054 4.88295 -7.64407
upperneck 32.8245 10.398 0.407577
head 15.0976 3.43652 3.46596
rclavicle 1.03368e-014 0
rhumerus -30.9582 -9.98212 -77.0506
rradius 38.009
rwrist -0.0834012
rhand -16.4437 9.69362
rfingers 7.12502
rthumb 9.77213 -20.0597
lclavicle 1.03368e-014 0
lhumerus -32.5697 14.8092 79.3377
lradius 35.3796
lwrist -0.00494292
lhand -21.6859 25.3427
lfingers 7.12502
lthumb 4.71205 55.2703
rfemur -7.99566 -1.93886 17.6626
rtibia 37.9987
rfoot -17.9768 -8.77732
rtoes 8.81086
lfemur -15.1047 8.18571 -23.0308
ltibia 40.6966
lfoot 9.61671 -25.6373
ltoes 0.653272
266
root -5.3946 17.6487 7.15295 -7.74014 -17.581 3.55609
lowerback 15.4758 1.55984 2.70916
upperback 1.73878 2.58275 1.06427
thorax -6.75227 1.19108 -0.941303
lowerneck -24.1645 4.86826 -7.57762
upperneck 32.9147 10.3395 0.49525
head 15.1627 3.42665 3.4905
rclavicle -1.94809e-014 -7.95139e-015
rhumerus -30.8626 -10.134 -76.846
rradius 37.7162
rwrist 0.173994
rhand -16.4421 9.70688
rfingers 7.12502
rthumb 9.77359 -20.0463
lclavicle -1.94809e-014 -7.95139e-015
lhumerus -32.7165 15.2736 79.3662
lradius 35.4944
lwrist -0.423978
lhand -21.1981 24.7581
lfingers 7.12502
lthumb 5.18312 54.6748
rfemur -7.73348 -2.12696 17.6698
rtibia 37.7339
rfoot -17.8732 -8.95385
rtoes 8.57385
lfemur -15.4817 8.21333 -22.4017
ltibia 41.0385
lfoot 11.6455 -25.9254
ltoes 1.19115
